<?xml version="1.0" encoding="utf-8"?>
<!-- Generator: Adobe Illustrator 18.0.0, SVG Export Plug-In . SVG Version: 6.00 Build 0)  -->
<!DOCTYPE svg PUBLIC "-//W3C//DTD SVG 1.1//EN" "http://www.w3.org/Graphics/SVG/1.1/DTD/svg11.dtd">
<svg version="1.1" id="Layer_2" xmlns="http://www.w3.org/2000/svg" xmlns:xlink="http://www.w3.org/1999/xlink" x="0px" y="0px"
	 viewBox="0 0 612 1008" enable-background="new 0 0 612 1008" xml:space="preserve">
<path d="M369.2,115.4C369.2,115.4,369.2,115.4,369.2,115.4c0-0.2,0-0.4-0.1-0.7c-1.7-6.7-6.4-9.8-12.9-10.8
	c-9.3-1.4-18.6-2.4-27.6-4.9c-5.7-1.6-13.9-2.8-18,2.3c-4.7,6-4.2,14.7-3.8,21.8c-0.2,8.9,5.1,16.3,8.1,24.3
	c2.6,6.9,7.3,16.2,14.7,19c6.5,2.4,14.9-7.1,18.5-11.2c5.9-6.8,11.6-14.1,15-22.5C366.8,127.3,370,122.2,369.2,115.4z"/>
<path d="M406.7,135.4c-7.3-5.2-15.5-10.2-24-13.1c-14.5-4.9-17,11.2-17.4,24.2c-0.1,4.5-1.1,18.5-1.3,21.8
	c-0.4,6.3,1.4,13.9,9.1,13.3c3.8-0.3,7.3-3.5,10.3-5.5c4-2.7,7.9-5.6,11.7-8.5c5.7-4.4,14.4-9.7,16.9-17
	C414.3,144,412,139.2,406.7,135.4z"/>
<path d="M442.6,167.3c-3.9-7.6-7.9-14.3-16.1-17.3c-16.6-6.3-20.8,12.4-24.3,25.3c-4.7,11-10.4,27.9,2.3,30.5
	c3.3,0.7,7-0.2,10.6-1.6c5.2-1.3,10.2-3.7,14.9-6.4c6.1-2.4,12.1-5.1,15.7-10.9C449.5,180.5,445.5,173,442.6,167.3z"/>
<path d="M462.8,200.5c-4.6-5.6-10.3-9-17.7-9.2c-6.8-0.2-13.4,2.7-18.3,7.2c-0.3,0.3-0.5,0.5-0.6,0.8c-4,3.5-6.4,8.4-7.1,13.8
	c-0.9,6.9-0.9,15.7,3.6,21.4c4.6,5.8,10,10.1,17.6,9.8c6.9-0.2,13.6-2.7,19-6.8C470.3,229,471.3,210.8,462.8,200.5z"/>
<path d="M493.4,258.4c-1.4-6.7-4.7-13.2-9.1-18.4c-4.8-5.6-12.6-4.3-19-3.1c-6.4,1.2-12.6,2.4-17.2,7.3c-5.1,5.4-5.1,13.9-4.8,20.8
	c0,0.6,0.5,5.8,5.9,14.8c0.1,0.1,0.1,0.2,0.2,0.3c0.1,0.2,0.2,0.3,0.4,0.5c0.7,1,1.6,1.9,2.5,2.7c5.7,5.1,13.2,2.7,19.9,1.4
	c6.5-1.3,13.8-2.3,18.8-7C495.9,273,494.6,264.3,493.4,258.4z"/>
<path d="M514.9,310.7c-1.9-9.9-5-19.5-11.6-27.2c-5.9-6.9-15.9-3-23.2-1.2c-8.6,2.1-19.8,2.9-25.8,10c-5.7,6.7-5.3,12.8-4.6,22.8
	c0.1,1,0.7,4.8,0.9,5.3c3.1,12.3,7.4,17.9,14,26.5c6.3,8.4,15.9,6.6,25,5.5c4.8-0.6,10.1-0.3,14.6-2.3c4.3-2,7.4-4.9,9.7-9
	C519.1,331.6,516.8,320.8,514.9,310.7z"/>
<path d="M530.7,394.9c-0.7-5.6-1.5-11.2-1.5-16.9c-0.1-5.4,0.1-10.8-1.6-16c-3.1-9.5-12.1-11.9-21.2-11.7c-9.4,0.2-21,0-29.3,5.1
	c-5.7,3.5-9.7,9.2-11.2,15.6c-2.4,10.5-2.2,19.9-1.9,24c0.4,4.8,0.7,10.7,2.9,15c1.9,3.7,5.1,6.4,8.5,8.8c4.1,3,10,2.7,14.9,2.9
	c11.1,0.5,23,0,33.9-2.7C535,416.4,531.7,402.8,530.7,394.9z"/>
<path d="M530.1,424.5c-7.7-6.4-18.9-4.1-28.1-3.4c-9.3,0.6-16.2,3.8-21.9,11.2c-5.8,7.6-6.7,17.9-6.4,27c0,6.9,0.9,16.2,8,19.1
	c10.3,4.1,20.9,7.8,32.1,8.8c3.4,0.3,9.2,0.9,12.3-1.1c3.2-2,5.3-5.1,6.6-8.5c4.1-10,1.4-20.5,4.1-30.7
	C539.1,438.6,536.8,430.1,530.1,424.5z"/>
<path d="M242.1,115.4C242.1,115.4,242.1,115.4,242.1,115.4c0-0.2,0-0.4,0.1-0.7c1.7-6.7,6.4-9.8,12.9-10.8
	c9.3-1.4,18.6-2.4,27.6-4.9c5.7-1.6,13.9-2.8,18,2.3c4.7,6,4.2,14.7,3.8,21.8c0.2,8.9-5.1,16.3-8.1,24.3c-2.6,6.9-7.3,16.2-14.7,19
	c-6.5,2.4-14.9-7.1-18.5-11.2c-5.9-6.8-11.6-14.1-15-22.5C244.5,127.3,241.2,122.2,242.1,115.4z"/>
<path d="M204.6,135.4c7.3-5.2,15.5-10.2,24-13.1c14.5-4.9,17,11.2,17.4,24.2c0.1,4.5,1.1,18.5,1.3,21.8c0.4,6.3-1.4,13.9-9.1,13.3
	c-3.8-0.3-7.3-3.5-10.3-5.5c-4-2.7-7.9-5.6-11.7-8.5c-5.7-4.4-14.4-9.7-16.9-17C197,144,199.3,139.2,204.6,135.4z"/>
<path d="M168.7,167.3c3.9-7.6,7.9-14.3,16.1-17.3c16.6-6.3,20.8,12.4,24.3,25.3c4.7,11,10.4,27.9-2.3,30.5c-3.3,0.7-7-0.2-10.6-1.6
	c-5.2-1.3-10.2-3.7-14.9-6.4c-6.1-2.4-12.1-5.1-15.7-10.9C161.8,180.5,165.8,173,168.7,167.3z"/>
<path d="M148.5,200.5c4.6-5.6,10.3-9,17.7-9.2c6.8-0.2,13.4,2.7,18.3,7.2c0.3,0.3,0.5,0.5,0.6,0.8c4,3.5,6.4,8.4,7.1,13.8
	c0.9,6.9,0.9,15.7-3.6,21.4c-4.6,5.8-10,10.1-17.6,9.8c-6.9-0.2-13.6-2.7-19-6.8C141,229,140,210.8,148.5,200.5z"/>
<path d="M117.9,258.4c1.4-6.7,4.7-13.2,9.1-18.4c4.8-5.6,12.6-4.3,19-3.1c6.4,1.2,12.6,2.4,17.2,7.3c5.1,5.4,5.1,13.9,4.8,20.8
	c0,0.6-0.5,5.8-5.9,14.8c-0.1,0.1-0.1,0.2-0.2,0.3c-0.1,0.2-0.2,0.3-0.4,0.5c-0.7,1-1.6,1.9-2.5,2.7c-5.7,5.1-13.2,2.7-19.9,1.4
	c-6.5-1.3-13.8-2.3-18.8-7C115.4,273,116.7,264.3,117.9,258.4z"/>
<path d="M96.4,310.7c1.9-9.9,5-19.5,11.6-27.2c5.9-6.9,15.9-3,23.2-1.2c8.6,2.1,19.8,2.9,25.8,10c5.7,6.7,5.3,12.8,4.6,22.8
	c-0.1,1-0.7,4.8-0.9,5.3c-3.1,12.3-7.4,17.9-14,26.5c-6.3,8.4-15.9,6.6-25,5.5c-4.8-0.6-10.1-0.3-14.6-2.3c-4.3-2-7.4-4.9-9.7-9
	C92.2,331.6,94.5,320.8,96.4,310.7z"/>
<path d="M80.6,394.9c0.7-5.6,1.5-11.2,1.5-16.9c0.1-5.4-0.1-10.8,1.6-16c3.1-9.5,12.1-11.9,21.2-11.7c9.4,0.2,21,0,29.3,5.1
	c5.7,3.5,9.7,9.2,11.2,15.6c2.4,10.5,2.2,19.9,1.9,24c-0.4,4.8-0.7,10.7-2.9,15c-1.9,3.7-5.1,6.4-8.5,8.8c-4.1,3-10,2.7-14.9,2.9
	c-11.1,0.5-23,0-33.9-2.7C76.3,416.4,79.6,402.8,80.6,394.9z"/>
<path d="M81.2,424.5c7.7-6.4,18.9-4.1,28.1-3.4c9.3,0.6,16.2,3.8,21.9,11.2c5.8,7.6,6.7,17.9,6.4,27c0,6.9-0.9,16.2-8,19.1
	c-10.3,4.1-20.9,7.8-32.1,8.8c-3.4,0.3-9.2,0.9-12.3-1.1c-3.2-2-5.3-5.1-6.6-8.5c-4.1-10-1.4-20.5-4.1-30.7
	C72.2,438.6,74.5,430.1,81.2,424.5z"/>
<path d="M506.4,540.3c-6.7-0.2-13.6,0.9-20.2,1.5c-5.6,0.5-11.8,0.5-17,2.7c-8.6,3.7-9.9,12.1-10,20.4c-1,11-0.7,22.1,0.9,33
	c0.5,3.6,2.2,7.7,5.9,9.2c5.7,2.3,13.3,1.2,19.3,1.2c11.5,0.2,24.2,2.3,31.1-8.6c2.9-4.6,3.3-10.3,3.6-15.5
	c0.4-7.7,1.2-15.1,2.6-22.7C524.1,552.5,516.4,540.7,506.4,540.3z"/>
<path d="M520.5,625.4c-2.1-7.7-6.9-14.1-15-16.5c-4.5-1.4-9.8-1-14.4-1.1c-5.9-0.1-11.8-0.3-17.7,0.3c-21.1,2-19.7,26.7-17.7,42.1
	c0,0.1,0,0.1,0,0.2c0.8,9.6,3.8,20.3,13,25.4c4.9,2.7,11.3,3.5,16.6,4.7c6.1,1.4,12.4,2.6,18.7,2.4c11.1-0.5,13.8-9,14.8-18.2
	C520,651.9,523.1,638.1,520.5,625.4z"/>
<path d="M511.8,702.1c-2.2-19.7-27.9-26.8-44.5-22.7c-9.2,2.3-12.6,11.7-13.7,20c-0.7,5.1-5.6,8.8-7.5,13.6c-1.4,3.6-2.2,7.2-2.7,11
	c-0.1,0.7-0.2,1.4-0.3,2c-1.6,8.9,4.5,13.8,11.8,18c4.4,2.5,9.2,5.2,14.2,6.9c1,0.3,4.6,2,5.4,2.4c4.8,1.9,11.9,1.1,16.6-0.8
	c5.3-2.2,7-7.3,9.2-12.2c1.1-2.5,2.7-4.8,3.9-7.4C508.5,723.8,512.9,712.4,511.8,702.1z"/>
<path d="M471.1,753.2c-6.1-5.2-13.1-8.9-21.3-8.6c-7,0.3-13.9,5.2-18.2,10.5c-5.4,6.6-5.8,14.8-5.6,22.9c0,0.3,0.1,0.5,0.1,0.7
	c0.5,6.7,2.7,12.6,7.4,17.8c5.1,5.6,12.4,7.3,19.6,8.1c17.5,2,27.6-15.9,27.5-31.2C480.6,764.5,477.9,759,471.1,753.2z"/>
<path d="M456.4,812.7c-3-13.9-23.7-17.3-35-13.5c-5.7,1.9-11.2,6.2-13.4,11.9c-2.7,6.7-2.1,14.8-1.3,22.2c0.2,1.9,0.7,4.3,2.7,7.8
	c1.8,3.3,4.4,6,8.4,6.3c7.9,0.7,16.7,0.8,24.4-1.5C456.7,841.5,459.2,825.8,456.4,812.7z"/>
<path d="M421.3,859.2c-1.1-6.8-7.1-12.7-11.2-17.9c-2.5-3.2-5.3-6.2-8.2-9c-2-2-4.9-4.9-7.7-5.7c-5.6-1.7-9.1,2.1-10.7,7.2
	c-1.1,3.5-1.1,7.6-1.5,11.2c-0.5,4.6-1.8,17.2-1.9,18.3c-0.3,2.7-1.1,6.6,0.1,9.3c2.8,5.9,9.8,7.2,15.7,7.6
	c6.7,0.4,12.4-0.5,17.7-4.8C418.3,871.4,422.4,865.6,421.3,859.2z"/>
<path d="M343.5,896.9c-0.2-7-3.7-13.6-6.5-19.8c-2.1-4.8-3.9-12.1-8.5-15.2c-3.2-2.2-6.5-2.3-9.3-0.7c-2.7,1.5-5,7-5.3,7.7
	c-1.8,4.6-3.5,9.2-4.8,13.9c-1.6,5.7-4.1,14.2-2.5,20.1c1.4,5.1,5,6.8,10,7.4c7.3,0.9,15.4,0.1,22.4-2.1
	C343.4,906.8,343.6,900.6,343.5,896.9z"/>
<path d="M382.6,876.7c-3-6.7-5.9-13.6-10.9-19.2c-3.8-4.2-8.2-8.8-14.2-7.6c-6.5,1.3-8.2,9.9-9.6,15.1c-1.4,5.3-2.5,10.7-3.4,16.1
	c-0.6,3.6-1.5,9.4-0.9,12.7c0.5,2.9,1.7,5.6,3.8,8.3c3.5,4.5,14.2,1.4,18.7,0.4c5.6-1.2,12.9-2.9,16.6-7.8
	C387,889.2,385.2,882.7,382.6,876.7z"/>
<path d="M105,540.3c6.7-0.2,13.6,0.9,20.2,1.5c5.6,0.5,11.8,0.5,17,2.7c8.6,3.7,9.9,12.1,10,20.4c1,11,0.7,22.1-0.9,33
	c-0.5,3.6-2.2,7.7-5.9,9.2c-5.7,2.3-13.3,1.2-19.3,1.2c-11.5,0.2-24.2,2.3-31.1-8.6c-2.9-4.6-3.3-10.3-3.6-15.5
	c-0.4-7.7-1.2-15.1-2.6-22.7C87.4,552.5,95,540.7,105,540.3z"/>
<path d="M91,625.4c2.1-7.7,6.9-14.1,15-16.5c4.5-1.4,9.8-1,14.4-1.1c5.9-0.1,11.8-0.3,17.7,0.3c21.1,2,19.7,26.7,17.7,42.1
	c0,0.1,0,0.1,0,0.2c-0.8,9.6-3.8,20.3-13,25.4c-4.9,2.7-11.3,3.5-16.6,4.7c-6.1,1.4-12.4,2.6-18.7,2.4c-11.1-0.5-13.8-9-14.8-18.2
	C91.4,651.9,88.3,638.1,91,625.4z"/>
<path d="M99.7,702.1c2.2-19.7,27.9-26.8,44.5-22.7c9.2,2.3,12.6,11.7,13.7,20c0.7,5.1,5.6,8.8,7.5,13.6c1.4,3.6,2.2,7.2,2.7,11
	c0.1,0.7,0.2,1.4,0.3,2c1.6,8.9-4.5,13.8-11.8,18c-4.4,2.5-9.2,5.2-14.2,6.9c-1,0.3-4.6,2-5.4,2.4c-4.8,1.9-11.9,1.1-16.6-0.8
	c-5.3-2.2-7-7.3-9.2-12.2c-1.1-2.5-2.7-4.8-3.9-7.4C103,723.8,98.5,712.4,99.7,702.1z"/>
<path d="M140.3,753.2c6.1-5.2,13.1-8.9,21.3-8.6c7,0.3,13.9,5.2,18.2,10.5c5.4,6.6,5.8,14.8,5.6,22.9c0,0.3-0.1,0.5-0.1,0.7
	c-0.5,6.7-2.7,12.6-7.4,17.8c-5.1,5.6-12.4,7.3-19.6,8.1c-17.5,2-27.6-15.9-27.5-31.2C130.8,764.5,133.6,759,140.3,753.2z"/>
<path d="M155,812.7c3-13.9,23.7-17.3,35-13.5c5.7,1.9,11.2,6.2,13.4,11.9c2.7,6.7,2.1,14.8,1.3,22.2c-0.2,1.9-0.7,4.3-2.7,7.8
	c-1.8,3.3-4.4,6-8.4,6.3c-7.9,0.7-16.7,0.8-24.4-1.5C154.7,841.5,152.2,825.8,155,812.7z"/>
<path d="M190.1,859.2c1.1-6.8,7.1-12.7,11.2-17.9c2.5-3.2,5.3-6.2,8.2-9c2-2,4.9-4.9,7.7-5.7c5.6-1.7,9.1,2.1,10.7,7.2
	c1.1,3.5,1.1,7.6,1.5,11.2c0.5,4.6,1.8,17.2,1.9,18.3c0.3,2.7,1.1,6.6-0.1,9.3c-2.8,5.9-9.8,7.2-15.7,7.6
	c-6.7,0.4-12.4-0.5-17.7-4.8C193.2,871.4,189.1,865.6,190.1,859.2z"/>
<path d="M268,896.9c0.2-7,3.7-13.6,6.5-19.8c2.1-4.8,3.9-12.1,8.5-15.2c3.2-2.2,6.5-2.3,9.3-0.7c2.7,1.5,5,7,5.3,7.7
	c1.8,4.6,3.5,9.2,4.8,13.9c1.6,5.7,4.1,14.2,2.5,20.1c-1.4,5.1-5,6.8-10,7.4c-7.3,0.9-15.4,0.1-22.4-2.1
	C268,906.8,267.9,900.6,268,896.9z"/>
<path d="M228.9,876.7c3-6.7,5.9-13.6,10.9-19.2c3.8-4.2,8.2-8.8,14.2-7.6c6.5,1.3,8.2,9.9,9.6,15.1c1.4,5.3,2.5,10.7,3.4,16.1
	c0.6,3.6,1.5,9.4,0.9,12.7c-0.5,2.9-1.7,5.6-3.8,8.3c-3.5,4.5-14.2,1.4-18.7,0.4c-5.6-1.2-12.9-2.9-16.6-7.8
	C224.4,889.2,226.2,882.7,228.9,876.7z"/>
</svg>
